<svg width="72" height="19" viewBox="0 0 72 19" fill="none" xmlns="http://www.w3.org/2000/svg">
<path d="M46.6978 8.80699H49.2208V10.4722H49.2582C49.3703 10.212 49.5386 9.95179 49.7628 9.70896C49.9684 9.46612 50.2114 9.27532 50.4917 9.10186C50.7534 8.9284 51.0524 8.80699 51.3701 8.70291C51.6692 8.61619 52.0056 8.58149 52.342 8.56415C52.5102 8.56415 52.6971 8.59884 52.9213 8.65088V10.9405C52.7905 10.9231 52.641 10.9058 52.4728 10.8885C52.2859 10.8711 52.1177 10.8538 51.9682 10.8538C51.4823 10.8538 51.0711 10.9405 50.7347 11.0793C50.3983 11.2354 50.1179 11.4435 49.9123 11.7037C49.7068 11.9639 49.5572 12.2588 49.4825 12.6057C49.389 12.9526 49.3517 13.3342 49.3517 13.7331V17.8151H46.6978V8.80699Z" fill="#10239E"/>
<path d="M43.1235 12.3281C42.9927 11.7037 42.7684 11.2354 42.4507 10.9058C42.133 10.5936 41.647 10.4375 41.0116 10.4201C40.5817 10.4201 40.2266 10.4895 39.9463 10.6283C39.666 10.767 39.4417 10.9231 39.2735 11.1139C39.1053 11.3221 38.9931 11.5302 38.9184 11.7384C38.8436 11.9639 38.8062 12.1547 38.8062 12.3281H43.1235ZM38.8062 13.8892C38.8436 14.6871 39.0492 15.2769 39.4604 15.6238C39.8529 15.9881 40.4322 16.1615 41.1798 16.1615C41.7031 16.1615 42.1704 16.0401 42.5628 15.7973C42.9366 15.5544 43.1796 15.2769 43.273 14.9994H45.6092C45.2354 16.0748 44.6561 16.8553 43.8898 17.3063C43.1048 17.7746 42.1704 18.0001 41.0864 18.0001C40.3201 18.0001 39.6286 17.8961 39.0305 17.6706C38.4138 17.4451 37.8905 17.1155 37.4793 16.6992C37.0494 16.2829 36.713 15.7973 36.4888 15.2075C36.2645 14.6351 36.1523 13.9933 36.1523 13.2995C36.1523 12.6404 36.2645 12.0159 36.5074 11.4262C36.7317 10.8538 37.0681 10.3507 37.5167 9.93445C37.9465 9.51815 38.4698 9.17124 39.0679 8.9284C39.666 8.68557 40.3388 8.56415 41.0864 8.56415C41.9087 8.56415 42.6189 8.72026 43.2357 9.01513C43.8337 9.31001 44.3383 9.70896 44.7308 10.1946C45.1233 10.6977 45.4036 11.2701 45.5905 11.8945C45.7587 12.5363 45.8148 13.1954 45.7774 13.8892H38.8062Z" fill="#10239E"/>
<path d="M32.8929 17.8151H29.9399L26.6489 8.80701H29.4337L31.4708 14.93H31.5082L33.5453 8.80701H36.1806L32.8929 17.8151Z" fill="#10239E"/>
<path d="M23.9902 12.3281C23.8594 11.7036 23.6351 11.2353 23.3174 10.9057C22.9997 10.5935 22.5137 10.4374 21.8783 10.4201C21.4484 10.4201 21.0933 10.4894 20.813 10.6282C20.5327 10.767 20.3084 10.9231 20.1402 11.1139C19.972 11.322 19.8598 11.5302 19.7851 11.7383C19.7103 11.9638 19.6729 12.1546 19.6729 12.3281H23.9902ZM19.6729 13.8892C19.7103 14.6871 19.9159 15.2768 20.3271 15.6237C20.7196 15.988 21.2989 16.1614 22.0465 16.1614C22.5698 16.1614 23.0371 16.04 23.4295 15.7972C23.8033 15.5544 24.0463 15.2768 24.1397 14.9993H26.4759C26.1021 16.0747 25.5228 16.8553 24.7565 17.3063C23.9715 17.7746 23.0371 18.0001 21.9531 18.0001C21.1868 18.0001 20.4953 17.896 19.8972 17.6705C19.2805 17.445 18.7572 17.1155 18.346 16.6992C17.9161 16.2829 17.5797 15.7972 17.3555 15.2074C17.1312 14.635 17.019 13.9933 17.019 13.2994C17.019 12.6403 17.1312 12.0159 17.3741 11.4261C17.5984 10.8537 17.9348 10.3507 18.3834 9.93439C18.8132 9.51809 19.3365 9.17118 19.9346 8.92834C20.5327 8.68551 21.2055 8.56409 21.9531 8.56409C22.7754 8.56409 23.4856 8.7202 24.1024 9.01507C24.7004 9.30995 25.205 9.70889 25.5975 10.1946C25.99 10.6976 26.2703 11.27 26.4572 11.8944C26.6254 12.5362 26.6815 13.1954 26.6441 13.8892H19.6729Z" fill="#10239E"/>
<path d="M13.4556 4.97937H16.0721V17.8151H13.4556V4.97937Z" fill="#10239E"/>
<path d="M9.49833 9.39547C9.44212 9.08618 9.32971 8.81125 9.16108 8.5535C8.97372 8.29576 8.76762 8.07238 8.50531 7.86618C8.243 7.67717 7.94322 7.52252 7.60596 7.41942C7.26871 7.31632 6.93146 7.26477 6.57547 7.24759C5.90096 7.24759 5.33887 7.36787 4.8892 7.60844C4.42079 7.849 4.04607 8.15829 3.76502 8.5535C3.46524 8.94871 3.25914 9.39547 3.12799 9.89378C2.99683 10.4093 2.94062 10.9248 2.94062 11.4574C2.94062 11.9729 2.99683 12.4884 3.12799 12.9695C3.25914 13.4507 3.46524 13.8974 3.76502 14.2755C4.04607 14.6707 4.42079 14.98 4.8892 15.2205C5.33887 15.4611 5.90096 15.5642 6.57547 15.5642C7.47481 15.5642 8.16805 15.3236 8.67394 14.8081C9.17981 14.3098 9.49833 13.6397 9.61075 12.8149H12.4587C12.3837 13.5881 12.1776 14.2755 11.8778 14.894C11.5593 15.5126 11.1471 16.0453 10.6412 16.4749C10.1166 16.9216 9.51707 17.2481 8.84256 17.4715C8.14932 17.7121 7.39987 17.8152 6.57547 17.8152C5.54497 17.8152 4.62689 17.6605 3.80249 17.334C2.9781 17.0076 2.30359 16.5608 1.7415 15.9766C1.17941 15.4095 0.748476 14.7394 0.448695 13.9662C0.148914 13.1929 -0.000976562 12.351 -0.000976562 11.4574C-0.000976562 10.5467 0.148914 9.70477 0.448695 8.91435C0.748476 8.12393 1.17941 7.43661 1.7415 6.85238C2.30359 6.28534 2.9781 5.8214 3.80249 5.47774C4.62689 5.15126 5.54497 4.99661 6.57547 4.97943C7.30618 4.97943 7.99943 5.08253 8.6552 5.27154C9.31097 5.47774 9.89179 5.75267 10.4164 6.13069C10.941 6.50872 11.372 6.95548 11.7092 7.50534C12.0465 8.05519 12.2526 8.69097 12.3463 9.39547H9.49833Z" fill="#10239E"/>
<path d="M69.1593 6.13904H71.4562V8.62729H69.1593V13.382C69.1593 15.0002 69.259 14.9954 69.4584 15.185C69.6577 15.3746 70.0564 15.4694 70.6545 15.4694C70.8539 15.4931 71.0283 15.4694 71.2276 15.4457C71.4021 15.4457 71.6431 15.3114 71.7677 15.185V17.7918C71.4562 17.9256 71.1031 18.0761 70.7542 18.0761C70.3804 18.0998 70.0315 18.0998 69.6827 18.0998C69.6593 18.0998 69.2647 18.0998 69.0986 18.0761C68.6939 18.0184 68.0921 17.8036 67.7183 17.5903C67.5107 17.4718 66.9707 16.9386 66.9084 16.7017C66.7215 16.4054 66.6176 15.8248 66.6176 15.2087V8.62729H64.4165V6.13904H66.6176V1.99194H69.1593V6.13904Z" fill="#10239E"/>
<path fill-rule="evenodd" clip-rule="evenodd" d="M53.4526 8.6273H55.197V17.8155H57.988V8.6273H60.0563L60.0563 6.13904H57.988L57.988 5.92576C57.988 5.42811 58.0876 4.95552 58.287 4.74224C58.4864 4.52896 58.8352 4.41048 59.3336 4.41048C59.7822 4.41048 60.2058 4.43418 60.6294 4.48157V1.99195L59.6825 1.99194L58.748 1.99195C57.5643 1.99195 56.6298 2.566 56.0692 3.11759C55.3465 3.82852 55.197 4.64609 55.197 5.71248L55.197 6.13904H53.4526L53.4526 8.6273ZM63.6696 9.69369H60.9534V17.8155H63.6696V9.69369Z" fill="#10239E"/>
<path d="M63.6696 7.40689C63.6696 8.12875 63.0832 8.71393 62.3613 8.71393V8.71393C61.6394 8.71393 61.053 8.12875 61.053 7.40688V7.40688C61.053 6.68501 61.6394 6.09983 62.3613 6.09983V6.09983C63.0832 6.09983 63.6696 6.68502 63.6696 7.40689V7.40689Z" fill="#40A9FF"/>
</svg>
